# xmcd
#
# Track frame offsets:
#	150
#	12905
#	23581
#	34678
#	46743
#	57849
#	70482
#	80429
#	95181
#	110024
#	120815
#	133050
#	151941
#	163274
#	181819
#	191949
#
# Disc length: 2707
#
# Revision: 2
# Processed by: cddbd v1.5.1PL0 Copyright (c) Steve Scherf et al.
# Submitted via: EasyCDDAExtractor 6.0.0.1
# Normalized: r1:DSETVAR1
#
DISCID=d10a9110
DTITLE=Various Artist - Country Women volume 2 cd1
DYEAR=1999
DGENRE=Country
TTITLE0=Billy jo spears - Sunshine
TTITLE1=Patsy Cline - Honky tonk merry go round
TTITLE2=Billie jo spears - I'm so lonesome I could cry
TTITLE3=Kitty Wells - Lonely side of town
TTITLE4=Patsy Cline - Just out of reach
TTITLE5=Kitty Wells - Release me
TTITLE6=Anne Murray - It's all over
TTITLE7=Jeannie C. Riley - Harper valley pta
TTITLE8=Tina Turner - Good hearted woman
TTITLE9=Kitty Wells - Searching
TTITLE10=Lynn Anderson - I never promised you a rose garden
TTITLE11=Tanya Tucker - Delta dawn
TTITLE12=Patsy Cline - I've loved and love again
TTITLE13=Tina Turner - Lovin' him was easier
TTITLE14=Tammy Wynette - Womanhood
TTITLE15=Lynn Anderson - Even cowgirls get the blues
EXTD=
EXTT0=
EXTT1=
EXTT2=
EXTT3=
EXTT4=
EXTT5=
EXTT6=
EXTT7=
EXTT8=
EXTT9=
EXTT10=
EXTT11=
EXTT12=
EXTT13=
EXTT14=
EXTT15=
PLAYORDER=
